<svg width="1440" height="914" viewBox="0 0 1440 914" fill="none" xmlns="http://www.w3.org/2000/svg">
<path d="M1440 0.000793457H0V914.001H1440V0.000793457Z" fill="#D9D9D9"/>
<g opacity="0.5">
<path d="M1438.67 917.569L826.556 917.571L1081.83 0.000352605L1438.67 -0.00134277V917.569Z" fill="#F2F2F2"/>
<path d="M920.696 402.936H921.944L780.009 914.001H778.761L920.696 402.936Z" fill="#BDBDBD"/>
<path d="M916.441 402.936H917.689L775.76 914.001H774.505L916.441 402.936Z" fill="#BDBDBD"/>
<path d="M912.186 402.936H913.441L771.505 914.001H770.25L912.186 402.936Z" fill="#BDBDBD"/>
<path d="M907.936 402.936H909.184L767.249 914.001H766.001L907.936 402.936Z" fill="#BDBDBD"/>
<path d="M903.681 402.936H904.929L762.993 914.001H761.745L903.681 402.936Z" fill="#BDBDBD"/>
<path d="M899.425 402.936H900.68L758.745 914.001H757.49L899.425 402.936Z" fill="#BDBDBD"/>
<path d="M895.17 402.936H896.425L754.489 914.001H753.241L895.17 402.936Z" fill="#BDBDBD"/>
<path d="M890.921 402.936H892.169L750.233 914.001H748.985L890.921 402.936Z" fill="#BDBDBD"/>
<path d="M886.665 402.936H887.913L745.985 914.001H744.73L886.665 402.936Z" fill="#BDBDBD"/>
<path d="M882.409 402.936H883.664L741.729 914.001H740.474L882.409 402.936Z" fill="#BDBDBD"/>
<path d="M878.161 402.936H879.409L737.474 914.001H736.226L878.161 402.936Z" fill="#BDBDBD"/>
<path d="M873.905 402.936H875.153L733.218 914.001H731.97L873.905 402.936Z" fill="#BDBDBD"/>
<path d="M869.649 402.936H870.904L728.969 914.001H727.714L869.649 402.936Z" fill="#BDBDBD"/>
<path d="M865.394 402.936H866.649L724.714 914.001H723.466L865.394 402.936Z" fill="#BDBDBD"/>
<path d="M861.145 402.936H862.393L720.458 914.001H719.21L861.145 402.936Z" fill="#BDBDBD"/>
<path d="M856.889 402.936H858.144L716.209 914.001H714.954L856.889 402.936Z" fill="#BDBDBD"/>
<path d="M852.633 402.936H853.888L711.953 914.001H710.705L852.633 402.936Z" fill="#BDBDBD"/>
<path d="M848.384 402.936H849.632L707.697 914.001H706.449L848.384 402.936Z" fill="#BDBDBD"/>
<path d="M844.129 402.936H845.377L703.448 914.001H702.193L844.129 402.936Z" fill="#BDBDBD"/>
<path d="M839.874 402.936H841.128L699.193 914.001H697.938L839.874 402.936Z" fill="#BDBDBD"/>
<path d="M835.624 402.936H836.872L694.937 914.001H693.689L835.624 402.936Z" fill="#BDBDBD"/>
<path d="M831.369 402.936H832.617L690.681 914.001H689.433L831.369 402.936Z" fill="#BDBDBD"/>
<path d="M827.113 402.936H828.368L686.432 914.001H685.178L827.113 402.936Z" fill="#BDBDBD"/>
<path d="M822.858 402.936H824.113L682.177 914.001H680.929L822.858 402.936Z" fill="#BDBDBD"/>
<path d="M818.609 402.936H819.857L677.921 914.001H676.673L818.609 402.936Z" fill="#BDBDBD"/>
<path d="M814.353 402.936H815.601L673.672 914.001H672.418L814.353 402.936Z" fill="#BDBDBD"/>
<path d="M810.097 402.936H811.352L669.417 914.001H668.162L810.097 402.936Z" fill="#BDBDBD"/>
<path d="M805.849 402.936H807.097L665.162 914.001H663.914L805.849 402.936Z" fill="#BDBDBD"/>
<path d="M801.593 402.936H802.841L660.909 914.001H659.659L801.593 402.936Z" fill="#BDBDBD"/>
<path d="M797.337 402.936H798.592L656.656 914.001H655.405L797.337 402.936Z" fill="#BDBDBD"/>
<path d="M1062.77 -108.129H1064.02L922.084 402.936H920.836L1062.77 -108.129Z" fill="#BDBDBD"/>
<path d="M1058.52 -108.129H1059.76L917.835 402.936H916.581L1058.52 -108.129Z" fill="#BDBDBD"/>
<path d="M1054.26 -108.129H1055.52L913.58 402.936H912.325L1054.26 -108.129Z" fill="#BDBDBD"/>
<path d="M1050.01 -108.129H1051.26L909.324 402.936H908.076L1050.01 -108.129Z" fill="#BDBDBD"/>
<path d="M1045.76 -108.129H1047L905.069 402.936H903.821L1045.76 -108.129Z" fill="#BDBDBD"/>
<path d="M1041.5 -108.129H1042.76L900.82 402.936H899.565L1041.5 -108.129Z" fill="#BDBDBD"/>
<path d="M1037.24 -108.129H1038.5L896.564 402.936H895.315L1037.24 -108.129Z" fill="#BDBDBD"/>
<path d="M1033 -108.129H1034.24L892.308 402.936H891.06L1033 -108.129Z" fill="#BDBDBD"/>
<path d="M1028.74 -108.129H1029.99L888.059 402.936H886.804L1028.74 -108.129Z" fill="#BDBDBD"/>
<path d="M1024.48 -108.129H1025.74L883.803 402.936H882.548L1024.48 -108.129Z" fill="#BDBDBD"/>
<path d="M1020.24 -108.129H1021.48L879.548 402.936H878.3L1020.24 -108.129Z" fill="#BDBDBD"/>
<path d="M1015.98 -108.129H1017.23L875.292 402.936H874.044L1015.98 -108.129Z" fill="#BDBDBD"/>
<path d="M1011.72 -108.129H1012.98L871.043 402.936H869.789L1011.72 -108.129Z" fill="#BDBDBD"/>
<path d="M1007.47 -108.129H1008.72L866.788 402.936H865.54L1007.47 -108.129Z" fill="#BDBDBD"/>
<path d="M1003.22 -108.129H1004.47L862.532 402.936H861.284L1003.22 -108.129Z" fill="#BDBDBD"/>
<path d="M998.964 -108.129H1000.22L858.283 402.936H857.029L998.964 -108.129Z" fill="#BDBDBD"/>
<path d="M994.708 -108.129H995.963L854.028 402.936H852.78L994.708 -108.129Z" fill="#BDBDBD"/>
<path d="M990.459 -108.129H991.708L849.772 402.936H848.524L990.459 -108.129Z" fill="#BDBDBD"/>
<path d="M986.204 -108.129H987.452L845.523 402.936H844.269L986.204 -108.129Z" fill="#BDBDBD"/>
<path d="M981.948 -108.129H983.203L841.268 402.936H840.013L981.948 -108.129Z" fill="#BDBDBD"/>
<path d="M977.699 -108.129H978.948L837.012 402.936H835.764L977.699 -108.129Z" fill="#BDBDBD"/>
<path d="M973.444 -108.129H974.692L832.757 402.936H831.509L973.444 -108.129Z" fill="#BDBDBD"/>
<path d="M969.188 -108.129H970.443L828.508 402.936H827.253L969.188 -108.129Z" fill="#BDBDBD"/>
<path d="M964.932 -108.129H966.187L824.252 402.936H823.003L964.932 -108.129Z" fill="#BDBDBD"/>
<path d="M960.683 -108.129H961.931L819.996 402.936H818.748L960.683 -108.129Z" fill="#BDBDBD"/>
<path d="M956.428 -108.129H957.676L815.748 402.936H814.493L956.428 -108.129Z" fill="#BDBDBD"/>
<path d="M952.173 -108.129H953.427L811.492 402.936H810.237L952.173 -108.129Z" fill="#BDBDBD"/>
<path d="M947.923 -108.129H949.171L807.236 402.936H805.988L947.923 -108.129Z" fill="#BDBDBD"/>
<path d="M943.667 -108.129H944.916L802.987 402.936H801.732L943.667 -108.129Z" fill="#BDBDBD"/>
<path d="M939.412 -108.129H940.667L798.731 402.936H797.477L939.412 -108.129Z" fill="#BDBDBD"/>
<path opacity="0.6" fill-rule="evenodd" clip-rule="evenodd" d="M136.692 594.884H135.562L371.196 -254.003H372.326L136.692 594.884ZM140.532 594.884H139.403L375.037 -254.003H376.167L140.532 594.884ZM144.373 594.884H143.244L378.877 -254.003H380.007L144.373 594.884ZM148.214 594.884H147.084L382.718 -254.003H383.847L148.214 594.884ZM152.054 594.884H150.924L386.559 -254.003H387.688L152.054 594.884ZM155.895 594.884H154.765L390.399 -254.003H391.529L155.895 594.884ZM159.736 594.884H158.606L394.239 -254.003H395.369L159.736 594.884ZM163.576 594.884H162.446L398.08 -254.003H399.21L163.576 594.884ZM167.416 594.884H166.287L401.921 -254.003H403.051L167.416 594.884ZM171.257 594.884H170.128L405.761 -254.003H406.891L171.257 594.884ZM175.098 594.884H173.968L409.602 -254.003H410.731L175.098 594.884ZM178.938 594.884H177.808L413.443 -254.003H414.572L178.938 594.884ZM182.779 594.884H181.649L417.283 -254.003H418.413L182.779 594.884ZM186.62 594.884H185.49L421.123 -254.003H422.253L186.62 594.884ZM190.46 594.884H189.33L424.964 -254.003H426.094L190.46 594.884ZM194.3 594.884H193.171L428.805 -254.003H429.935L194.3 594.884ZM198.141 594.884H197.012L432.645 -254.003H433.775L198.141 594.884ZM201.982 594.884H200.852L436.486 -254.003H437.615L201.982 594.884ZM205.822 594.884H204.692L440.327 -254.003H441.456L205.822 594.884ZM209.663 594.884H208.533L444.167 -254.003H445.297L209.663 594.884ZM213.504 594.884H212.374L448.007 -254.003H449.137L213.504 594.884ZM217.344 594.884H216.214L451.848 -254.003H452.978L217.344 594.884ZM221.184 594.884H220.055L455.689 -254.003H456.819L221.184 594.884ZM225.025 594.884H223.896L459.529 -254.003H460.659L225.025 594.884ZM228.866 594.884H227.736L463.37 -254.003H464.499L228.866 594.884ZM232.706 594.884H231.576L467.211 -254.003H468.34L232.706 594.884ZM236.547 594.884H235.417L471.051 -254.003H472.181L236.547 594.884ZM240.388 594.884H239.258L474.891 -254.003H476.021L240.388 594.884ZM244.228 594.884H243.098L478.732 -254.003H479.862L244.228 594.884ZM248.068 594.884H246.939L482.573 -254.003H483.703L248.068 594.884ZM251.909 594.884H250.78L486.413 -254.003H487.543L251.909 594.884ZM255.75 594.884H254.62L490.254 -254.003H491.383L255.75 594.884ZM259.59 594.884H258.461L494.095 -254.003H495.224L259.59 594.884ZM263.431 594.884H262.301L497.935 -254.003H499.065L263.431 594.884ZM267.272 594.884H266.142L501.775 -254.003H502.905L267.272 594.884ZM271.112 594.884H269.982L505.616 -254.003H506.746L271.112 594.884ZM274.952 594.884H273.823L509.457 -254.003H510.587L274.952 594.884ZM278.793 594.884H277.664L513.297 -254.003H514.427L278.793 594.884ZM282.634 594.884H281.504L517.138 -254.003H518.267L282.634 594.884ZM286.474 594.884H285.345L520.979 -254.003H522.108L286.474 594.884ZM290.315 594.884H289.185L524.819 -254.003H525.949L290.315 594.884ZM294.156 594.884H293.026L528.659 -254.003H529.789L294.156 594.884ZM297.996 594.884H296.866L532.5 -254.003H533.63L297.996 594.884Z" fill="#BEBEBE"/>
<g opacity="0.6">
<path d="M698.357 -572.27H696.133L191.805 1244.61H194.028L698.357 -572.27Z" fill="#BEBEBE"/>
<path d="M705.912 -572.27H703.694L199.362 1244.61H201.585L705.912 -572.27Z" fill="#BEBEBE"/>
<path d="M713.474 -572.27H711.25L206.92 1244.61H209.143L713.474 -572.27Z" fill="#BEBEBE"/>
<path d="M721.029 -572.27H718.805L214.477 1244.61H216.7L721.029 -572.27Z" fill="#BEBEBE"/>
<path d="M728.585 -572.27H726.36L222.034 1244.61H224.257L728.585 -572.27Z" fill="#BEBEBE"/>
<path d="M736.146 -572.27H733.922L229.591 1244.61H231.814L736.146 -572.27Z" fill="#BEBEBE"/>
<path d="M743.701 -572.27H741.477L237.148 1244.61H239.371L743.701 -572.27Z" fill="#BEBEBE"/>
</g>
<g opacity="0.6">
<path d="M750.612 -572.27H748.388L244.059 1244.61H246.282L750.612 -572.27Z" fill="#BEBEBE"/>
<path d="M758.167 -572.27H755.943L251.616 1244.61H253.839L758.167 -572.27Z" fill="#BEBEBE"/>
<path d="M765.722 -572.27H763.505L259.174 1244.61H261.396L765.722 -572.27Z" fill="#BEBEBE"/>
<path d="M773.284 -572.27H771.06L266.73 1244.61H268.953L773.284 -572.27Z" fill="#BEBEBE"/>
<path d="M780.84 -572.27H778.616L274.288 1244.61H276.511L780.84 -572.27Z" fill="#BEBEBE"/>
<path d="M788.394 -572.27H786.177L281.845 1244.61H284.068L788.394 -572.27Z" fill="#BEBEBE"/>
<path d="M795.956 -572.27H793.732L289.402 1244.61H291.625L795.956 -572.27Z" fill="#BEBEBE"/>
</g>
<path d="M200.472 -9.1803H153.396L-102.905 914.164H-55.8298L200.472 -9.1803Z" fill="#E0E0E0"/>
<path d="M195.789 -9.1803H200.472L-55.8295 914.164H-60.5127L195.789 -9.1803Z" fill="#E0E0E0"/>
<path d="M154.526 -9.1803H153.396L-102.905 914.164H-101.776L154.526 -9.1803Z" fill="#F2F2F2"/>
<path d="M158.367 -9.1803H157.237L-99.0642 914.164H-97.9349L158.367 -9.1803Z" fill="#F2F2F2"/>
<path d="M162.207 -9.1803H161.078L-95.2234 914.164H-94.0941L162.207 -9.1803Z" fill="#F2F2F2"/>
<path d="M166.047 -9.1803H164.918L-91.3834 914.164H-90.2541L166.047 -9.1803Z" fill="#F2F2F2"/>
<path d="M169.889 -9.1803H168.759L-87.5426 914.164H-86.4126L169.889 -9.1803Z" fill="#F2F2F2"/>
<path d="M173.729 -9.1803H172.599L-83.7026 914.164H-82.5727L173.729 -9.1803Z" fill="#F2F2F2"/>
<path d="M177.57 -9.1803H176.44L-79.8618 914.164H-78.7319L177.57 -9.1803Z" fill="#F2F2F2"/>
<path d="M1560.57 0.000793457H1156.88L900.58 923.345H1304.26L1560.57 0.000793457Z" fill="#D9D9D9"/>
<path d="M1145.59 0.000793457H1122.69L866.39 923.345H889.294L1145.59 0.000793457Z" fill="#D9D9D9"/>
<path d="M1614.79 -5.10077H1613.66L1357.36 918.243H1358.49L1614.79 -5.10077Z" fill="#BDBDBD"/>
<path d="M1618.63 -5.10077H1617.51L1361.2 918.243H1362.33L1618.63 -5.10077Z" fill="#BDBDBD"/>
<path d="M1622.47 -5.10077H1621.34L1365.05 918.243H1366.17L1622.47 -5.10077Z" fill="#BDBDBD"/>
<path d="M1626.32 -5.10077H1625.18L1368.88 918.243H1370.01L1626.32 -5.10077Z" fill="#BDBDBD"/>
<path d="M1630.15 -5.10077H1629.03L1372.73 918.243H1373.86L1630.15 -5.10077Z" fill="#BDBDBD"/>
<path d="M1634 -5.10077H1632.86L1376.56 918.243H1377.69L1634 -5.10077Z" fill="#BDBDBD"/>
<path d="M1637.83 -5.10077H1636.71L1380.41 918.243H1381.54L1637.83 -5.10077Z" fill="#BDBDBD"/>
<path d="M1641.68 -5.10077H1640.54L1384.25 918.243H1385.37L1641.68 -5.10077Z" fill="#BDBDBD"/>
<path d="M1645.52 -5.10077H1644.39L1388.08 918.243H1389.22L1645.52 -5.10077Z" fill="#BDBDBD"/>
<path d="M1649.36 -5.10077H1648.23L1391.93 918.243H1393.06L1649.36 -5.10077Z" fill="#BDBDBD"/>
<path d="M1653.2 -5.10077H1652.07L1395.76 918.243H1396.9L1653.2 -5.10077Z" fill="#BDBDBD"/>
<path d="M1657.04 -5.10077H1655.91L1399.61 918.243H1400.74L1657.04 -5.10077Z" fill="#BDBDBD"/>
<path d="M1660.88 -5.10077H1659.75L1403.45 918.243H1404.58L1660.88 -5.10077Z" fill="#BDBDBD"/>
<path d="M1572.55 -5.10077H1571.42L1315.11 918.243H1316.24L1572.55 -5.10077Z" fill="#BDBDBD"/>
<path d="M1576.38 -5.10077H1575.26L1318.96 918.243H1320.09L1576.38 -5.10077Z" fill="#BDBDBD"/>
<path d="M1580.23 -5.10077H1579.1L1322.79 918.243H1323.92L1580.23 -5.10077Z" fill="#BDBDBD"/>
<path d="M1584.07 -5.10077H1582.94L1326.64 918.243H1327.77L1584.07 -5.10077Z" fill="#BDBDBD"/>
<path d="M1587.91 -5.10077H1586.78L1330.48 918.243H1331.6L1587.91 -5.10077Z" fill="#BDBDBD"/>
<path d="M1591.75 -5.10077H1590.62L1334.32 918.243H1335.45L1591.75 -5.10077Z" fill="#BDBDBD"/>
<path d="M1595.59 -5.10077H1594.46L1338.16 918.243H1339.29L1595.59 -5.10077Z" fill="#BDBDBD"/>
<path d="M1599.43 -5.10077H1598.3L1342 918.243H1343.13L1599.43 -5.10077Z" fill="#BDBDBD"/>
<path d="M1603.27 -5.10077H1602.14L1345.84 918.243H1346.97L1603.27 -5.10077Z" fill="#BDBDBD"/>
<path d="M1607.11 -5.10077H1605.98L1349.68 918.243H1350.81L1607.11 -5.10077Z" fill="#BDBDBD"/>
<path d="M1610.95 -5.10077H1609.83L1353.52 918.243H1354.65L1610.95 -5.10077Z" fill="#BDBDBD"/>
<path d="M1614.79 -5.10077H1613.66L1357.36 918.243H1358.49L1614.79 -5.10077Z" fill="#BDBDBD"/>
<path d="M1618.63 -5.10077H1617.51L1361.2 918.243H1362.33L1618.63 -5.10077Z" fill="#BDBDBD"/>
<path d="M1664.72 -5.10077H1663.59L1407.29 918.243H1408.42L1664.72 -5.10077Z" fill="#BDBDBD"/>
<path d="M1668.56 -5.10077H1667.43L1411.13 918.243H1412.26L1668.56 -5.10077Z" fill="#BDBDBD"/>
<path d="M1672.4 -5.10077H1671.27L1414.97 918.243H1416.1L1672.4 -5.10077Z" fill="#BDBDBD"/>
<path d="M1676.24 -5.10077H1675.11L1418.81 918.243H1419.94L1676.24 -5.10077Z" fill="#BDBDBD"/>
<path d="M1680.08 -5.10077H1678.95L1422.65 918.243H1423.78L1680.08 -5.10077Z" fill="#BDBDBD"/>
<path d="M1683.92 -5.10077H1682.79L1426.49 918.243H1427.62L1683.92 -5.10077Z" fill="#BDBDBD"/>
<path d="M1687.76 -5.10077H1686.63L1430.33 918.243H1431.46L1687.76 -5.10077Z" fill="#BDBDBD"/>
<path d="M1691.6 -5.10077H1690.48L1434.17 918.243H1435.3L1691.6 -5.10077Z" fill="#BDBDBD"/>
<path d="M1695.44 -5.10077H1694.31L1438.01 918.243H1439.14L1695.44 -5.10077Z" fill="#BDBDBD"/>
</g>
</svg>
