<svg width="40" height="40" viewBox="0 0 40 40" fill="none" xmlns="http://www.w3.org/2000/svg">
<path d="M-1.1833e-06 21.2312L9.70182 21.2312C9.53596 14.1605 7.5305 13.3579 5.01172 13.1288L4.0404 13.0084L4.0404 5.23347L5.16 5.29347C8.44909 5.47852 12.0855 6.07145 14.5115 9.0664C16.6382 11.6919 17.5758 15.9811 17.5758 22.5656L17.5758 34.7666L0 34.7666L-1.1833e-06 21.2312ZM22.4242 34.7666L22.4242 21.2312L31.9966 21.2312C31.8307 14.1605 29.8901 13.3579 27.3713 13.1288L26.4646 13.0084L26.4646 5.23347L27.5196 5.29347C30.8087 5.47852 34.4776 6.07145 36.9036 9.0664C39.0301 11.6919 40 15.9811 40 22.5656L40 34.7666L22.4242 34.7666Z" fill="black"/>
</svg>
