<svg width="40" height="40" viewBox="0 0 40 40" fill="none" xmlns="http://www.w3.org/2000/svg">
<g clip-path="url(#clip0_53_621)">
<path d="M0 18.7688H9.70182C9.53596 25.8395 7.53051 26.6421 5.01172 26.8712L4.0404 26.9916V34.7665L5.16 34.7065C8.44909 34.5215 12.0855 33.9286 14.5115 30.9336C16.6382 28.3081 17.5758 24.0189 17.5758 17.4344V5.2334H0V18.7688ZM22.4242 5.2334V18.7688H31.9966C31.8307 25.8395 29.8901 26.6421 27.3713 26.8712L26.4646 26.9916V34.7665L27.5196 34.7065C30.8087 34.5215 34.4776 33.9286 36.9036 30.9336C39.0301 28.3081 40 24.0189 40 17.4344V5.2334H22.4242Z" fill="black"/>
</g>
<defs>
<clipPath id="clip0_53_621">
<rect width="40" height="40" fill="white"/>
</clipPath>
</defs>
</svg>
