<svg width="240" height="118" viewBox="0 0 240 118" fill="none" xmlns="http://www.w3.org/2000/svg">
<path d="M120 115.293C152.037 115.293 181.163 109.243 202.374 99.3512C223.381 89.5547 237.5 75.5221 237.5 59.1635C237.5 42.8048 223.381 28.7722 202.374 18.9757C181.163 9.08431 152.037 3.03365 120 3.03365C87.9628 3.03365 58.8366 9.08431 37.6261 18.9757C16.6192 28.7722 2.5 42.8048 2.5 59.1635C2.5 75.5221 16.6192 89.5547 37.6261 99.3512C58.8366 109.243 87.9628 115.293 120 115.293Z" fill="#FACB00" stroke="#161616" stroke-width="5"/>
<path d="M151.069 23.5699C152.13 23.5699 153.496 24.0827 154.532 24.3337C157.306 24.9949 160.058 25.7368 162.788 26.5593C165.517 27.3819 168.22 28.287 170.896 29.2746C173.371 30.1648 175.917 31.0551 178.27 32.2177C178.311 32.3121 178.203 34.0569 178.213 34.3347L178.183 34.3703C178.105 34.3703 171.321 31.6996 170.437 31.3898C164.112 29.1339 157.544 27.0703 150.947 25.7973C151.256 25.2364 151.108 24.202 151.069 23.5699Z" fill="#101112"/>
<path d="M87.7928 23.4453C88.042 23.8121 87.8918 25.2115 87.8882 25.6976C85.2542 26.4685 82.5265 26.9439 79.8819 27.6775C76.5278 28.5986 73.2091 29.6312 69.9257 30.7755C66.6424 31.9198 63.4014 33.1738 60.2029 34.5377C60.286 33.5121 60.5282 33.4142 60.2559 32.2408C63.4379 30.8829 66.6588 29.6366 69.9187 28.5018C73.1785 27.3671 76.4754 26.3397 79.8094 25.4198C82.4434 24.6827 85.1322 24.0898 87.7928 23.4453Z" fill="#101112"/>
<path d="M151.065 28.5553C152.1 28.5553 153.457 29.0538 154.472 29.3013C156.381 29.7559 158.282 30.2491 160.173 30.7809C162.065 31.3126 163.944 31.8812 165.811 32.4865C167.679 33.0943 169.534 33.7376 171.377 34.4166C173.221 35.0955 175.047 35.8125 176.857 36.5674C178.289 37.1656 179.937 37.6891 181.277 38.4672C181.383 38.6976 181.437 38.9486 181.436 39.2025C181.47 39.6583 181.517 40.3385 181.21 40.7035C173.453 37.0553 164.193 33.9608 155.863 31.9257C154.242 31.5304 152.591 31.0461 150.945 30.7809C151.256 30.2289 151.106 29.1784 151.065 28.5553Z" fill="#101112"/>
<path d="M87.7838 28.4306C88.0383 28.7689 87.8916 30.2111 87.8881 30.6865C85.2364 31.3791 82.5281 31.9186 79.8835 32.6575C76.0415 33.7186 72.2443 34.9217 68.4919 36.2665C64.7395 37.6114 61.0412 39.0951 57.3972 40.7177C57.1568 40.1836 57.3088 39.0441 57.3195 38.4458C62.2693 36.368 67.2102 34.3204 72.3121 32.6432C77.4139 30.966 82.5794 29.6876 87.7838 28.4306Z" fill="#101112"/>
<path d="M116.698 15.8284C118.522 15.7928 120.354 15.8284 122.178 15.8195C122.869 17.1744 121.899 18.3798 121.763 19.6778C121.6 21.2286 121.619 25.4875 121.784 27.0205C121.916 28.2472 122.551 28.2935 122.349 30.0847C122.316 30.3838 122.275 30.4408 122.044 30.6277H116.427C116.915 29.8283 116.288 28.5481 116.799 27.7665C116.83 27.7166 116.864 27.6686 116.892 27.6134C117.019 27.403 117.104 27.1695 117.142 26.9261C117.272 25.7029 117.271 20.7389 117.094 19.4837C117.025 18.9958 116.799 18.5311 116.671 18.0593C116.544 17.5875 116.452 16.2699 116.698 15.8284Z" fill="#101112"/>
<path d="M82.0119 73.8222H87.8828C87.8969 74.4364 87.9163 75.0507 87.9128 75.665C87.9128 76.3415 87.7802 76.4501 87.3259 76.9113C87.0307 77.6395 87.0873 84.3893 87.2198 85.4807C87.272 85.5119 87.3278 85.5365 87.386 85.5537C87.7007 85.6356 88.0931 85.5074 88.376 85.365C88.871 84.8077 88.6712 83.1554 88.6659 82.4201C89.997 82.3987 91.3299 82.4201 92.6593 82.4201V85.4149V88.6197H82.0013C82.0013 87.9075 81.8458 86.8161 82.0526 86.1466C82.1905 85.6962 82.5829 85.584 82.6236 85.0178C82.8004 82.9061 82.6236 80.6414 82.6342 78.5119C82.6342 77.4739 82.1958 76.7315 82.019 75.7486C81.9094 75.145 81.9872 74.4329 82.0119 73.8222Z" fill="#101112"/>
<path d="M123.548 73.6298C124.765 73.4827 125.998 73.5259 127.202 73.758C128.029 73.9361 129.649 74.4026 130.133 75.1539C130.414 75.8038 130.384 78.0312 130.113 78.7149L125.911 78.7327C125.978 78.6158 126.021 78.487 126.039 78.3534C126.086 78.1413 126.091 77.9219 126.053 77.7079C126.015 77.4939 125.935 77.2897 125.818 77.1071C125.659 76.865 125.413 76.6941 125.132 76.6299C125.028 76.6126 124.921 76.6197 124.82 76.6505C124.719 76.6814 124.627 76.7353 124.55 76.808C123.912 77.4116 124.098 82.8883 124.114 84.1418C124.114 84.619 124.216 85.2314 124.584 85.5662C124.653 85.6313 124.736 85.6808 124.826 85.7115C124.915 85.7422 125.011 85.7533 125.105 85.7442C125.228 85.7289 125.347 85.6881 125.453 85.6244C125.56 85.5606 125.652 85.4753 125.724 85.3739C126.23 84.7293 126.141 83.8195 126.046 83.0592C125.841 82.8812 125.606 82.9506 125.339 82.9542C124.906 82.7121 125.289 80.8479 124.997 80.2105L124.966 80.1446H128.202H130.062C130.102 80.2062 130.136 80.2711 130.165 80.3387C130.418 80.9601 130.341 86.727 130.133 87.2719C130.128 87.287 130.123 87.3018 130.117 87.3164C129.785 87.9538 128.086 88.52 127.426 88.7016C125.738 89.1663 123.104 89.1414 121.547 88.228C120.613 87.6814 120.064 86.7804 119.809 85.7353C119.415 84.1222 119.425 78.9944 119.698 77.351C119.791 76.6972 120.011 76.0681 120.345 75.4993C121.092 74.2922 122.259 73.9432 123.548 73.6298Z" fill="#101112"/>
<path d="M145.336 73.8417C148.944 73.7189 152.584 73.8222 156.201 73.8257C156.242 73.8945 156.276 73.9673 156.303 74.0429C156.512 74.6572 156.48 78.3161 156.201 78.8751H152.156L152.181 78.8217C152.338 78.5009 152.37 78.1322 152.269 77.7891C152.124 77.3964 151.831 77.0768 151.454 76.8988C151.365 76.848 151.266 76.8174 151.163 76.8091C151.061 76.8008 150.958 76.815 150.862 76.8507C150.173 77.0769 150.685 78.9339 150.355 79.5535L150.319 79.614H152.794C152.851 79.6952 152.895 79.7847 152.925 79.8793C153.102 80.4722 153.102 81.8984 152.794 82.4254H150.348C150.814 83.1928 150.249 84.4801 150.593 85.3472C150.675 85.552 150.744 85.552 150.933 85.6374C151.179 85.6125 151.418 85.5437 151.64 85.4344C151.686 85.4149 151.711 85.406 151.758 85.3828C151.877 85.3158 151.979 85.2243 152.06 85.1145C152.141 85.0047 152.198 84.8789 152.227 84.7454C152.378 84.2741 152.357 83.7636 152.167 83.3068H156.173C156.195 83.343 156.215 83.3805 156.233 83.4189C156.544 84.0955 156.485 87.9057 156.222 88.6001C152.554 88.6802 148.865 88.6108 145.195 88.6126C145.596 87.8221 145.145 86.8606 145.389 86.0897C145.486 85.9393 145.597 85.7981 145.72 85.6677C146.181 85.0481 145.999 78.3998 145.909 77.2994C145.866 76.7902 145.447 76.6549 145.364 76.2116C145.23 75.478 145.407 74.6109 145.336 73.8417Z" fill="#101112"/>
<path d="M100.708 18.3478C100.001 17.5412 99.0852 17.3293 98.0563 17.3008C97.9777 17.2988 97.8991 17.303 97.8212 17.3133C95.2933 17.5073 92.785 17.9056 90.3205 18.5044C90.283 19.086 90.2942 19.6697 90.3541 20.2493C90.4743 21.0665 90.7536 21.8517 90.8367 22.6814C90.9852 24.1486 91.0559 28.5001 90.7907 29.8586C90.7433 30.1289 90.6207 30.3802 90.4371 30.5832C90.4018 30.6295 90.3664 30.674 90.3275 30.7167V33.3269C91.4542 33.1097 92.5832 32.9061 93.7146 32.7162L96.0145 32.3601V29.7962C95.7175 29.5505 95.5089 29.3689 95.4736 28.9683C95.4453 28.6229 95.4559 28.2668 95.4559 27.9196C97.1194 28.0389 98.7829 27.8965 100.103 26.7552C101.208 25.7991 101.638 24.4281 101.74 23.0037C101.838 21.4956 101.767 19.53 100.708 18.3478ZM96.7994 24.6702C96.3911 24.9373 95.9155 25.0495 95.4594 25.1866V20.6642C95.813 20.6286 96.2585 20.536 96.5749 20.7122C96.8913 20.8885 97.0858 21.3247 97.176 21.6737C97.381 22.507 97.252 23.9153 96.7994 24.6613V24.6702Z" fill="#101112"/>
<path d="M94.0295 73.8186L104.873 73.8275C104.929 73.9112 104.971 74.0031 104.999 74.0999C105.163 74.6892 105.138 78.4122 104.868 78.8716H100.954C100.935 78.382 101.003 77.5932 100.632 77.2246C100.261 76.8561 99.5998 76.9522 99.1261 76.9558V79.6051H101.601V82.4219H99.1261C99.1437 83.2213 98.9723 84.124 99.0978 84.9003C99.1095 85.0365 99.1537 85.1679 99.2267 85.2832C99.2996 85.3985 99.3991 85.4943 99.5167 85.5626C99.8598 85.5783 100.202 85.5175 100.519 85.3846C100.975 84.7632 100.926 84.0385 100.963 83.2961H104.898C104.957 83.3858 104.999 83.4861 105.022 83.5916C105.147 84.327 105.198 88.0784 104.871 88.6001H94.0207C94.0083 87.9004 93.8439 86.7271 94.0667 86.0807C94.2028 85.6926 94.5227 85.5822 94.5599 85.1015C94.7225 82.9649 94.6023 80.2942 94.6182 78.0864C94.6182 77.3884 94.201 76.7742 94.0596 76.1047C93.9111 75.4192 94.0118 74.5361 94.0295 73.8186Z" fill="#101112"/>
<path d="M137.17 16.8895C138.454 16.6901 146.556 18.0664 148.118 18.4724C148.153 18.5489 148.181 18.6281 148.203 18.7092C148.38 19.3911 148.38 22.9289 148.06 23.456C146.777 23.1629 145.479 22.9453 144.171 22.8043C144.222 22.7247 144.258 22.6358 144.275 22.5426C144.341 22.1366 144.36 21.6292 144.098 21.2855C143.648 20.6926 142.87 20.6214 142.193 20.5164C142.243 20.5902 142.283 20.6705 142.311 20.755C142.477 21.3265 142.476 22.7722 142.187 23.2726C143.015 23.3616 144.029 23.4008 144.806 23.6874C144.892 24.4388 145.062 25.8507 144.673 26.5237C143.862 26.3332 143.017 26.2513 142.198 26.1409C142.718 26.9493 142.021 28.1902 142.419 29.0306C142.529 29.2692 142.727 29.2763 142.949 29.3582C143.167 29.3723 143.386 29.3604 143.602 29.3226C143.848 29.2218 144.048 29.0311 144.162 28.7885C144.387 28.3558 144.303 27.6792 144.173 27.2288C145.494 27.379 146.807 27.6025 148.104 27.8982C148.139 27.9773 148.167 28.0588 148.189 28.1422C148.366 28.8757 148.394 32.7412 148.049 33.3162C146.879 32.7572 138.749 31.7708 137.073 31.6551C137.082 31.6373 137.089 31.6177 137.098 31.5981C137.462 30.7986 136.948 29.4526 137.441 28.8099C137.476 28.7673 137.508 28.7227 137.538 28.6763C137.663 28.4959 137.747 28.2907 137.786 28.0745C137.909 27.0062 137.918 21.4031 137.786 20.4185C137.729 20.0072 137.326 19.7063 137.28 19.3074C137.186 18.508 137.349 17.6908 137.17 16.8895Z" fill="#101112"/>
<path d="M118.474 86.1146C118.342 85.7923 118.052 85.5448 117.93 85.2243C117.635 84.4267 117.504 83.4688 117.299 82.6337C116.883 80.9334 116.302 79.1262 116.074 77.3973C115.93 76.338 116.781 74.8263 116.146 73.8364C113.494 73.8364 110.83 73.7456 108.191 73.8506C108.211 74.4079 108.182 74.9919 108.242 75.5439C108.302 76.1314 108.465 76.7528 108.432 77.3439C108.368 78.5012 107.91 79.8117 107.634 80.9423C107.302 82.3008 107.021 83.7056 106.63 85.0374C106.51 85.4469 106.171 85.7496 106.066 86.1502C105.868 86.8962 106.296 87.9467 105.866 88.6055H111.188L111.221 88.5467C111.995 87.1223 110.263 84.8949 111.408 84.5442C111.983 84.3661 112.766 84.4961 113.353 84.5442C113.408 84.5959 113.448 84.6609 113.471 84.7329C113.493 84.8049 113.497 84.8815 113.482 84.9555C113.47 85.4273 113.129 86.4671 112.893 86.8891C113.122 87.3447 113.172 87.8705 113.033 88.3615C113.004 88.4471 112.964 88.5289 112.916 88.6055C114.732 88.6055 116.558 88.6428 118.374 88.6055C118.598 88.1105 118.69 86.6327 118.474 86.1146ZM112.908 81.8681L112.2 81.8841C112.001 81.8841 111.799 81.8646 111.601 81.8503C111.258 81.4942 112.101 77.6199 112.077 76.808C112.185 76.8472 112.211 76.8311 112.268 76.9415C112.471 77.3617 113.022 81.512 112.908 81.8681Z" fill="#101112"/>
<path d="M131.977 73.8418C133.783 73.7563 135.617 73.8204 137.427 73.8311C137.685 74.2726 137.642 75.008 137.604 75.5101C137.547 76.2864 137.167 77.027 137.073 77.8051C136.951 78.7434 136.96 84.2326 137.153 85.0089C137.175 85.1533 137.231 85.2904 137.316 85.4091C137.401 85.5278 137.512 85.6249 137.641 85.6926C137.734 85.7359 137.836 85.7595 137.939 85.7619C138.042 85.7644 138.144 85.7456 138.24 85.7069C138.464 85.6155 138.645 85.4417 138.746 85.2208C138.963 84.7596 138.979 77.976 138.839 77.1695C138.776 76.8134 138.454 76.6353 138.341 76.3344C138.077 75.6222 138.466 74.618 138.173 73.824H143.727C143.762 73.8713 143.791 73.922 143.816 73.9753C144.01 74.4507 143.957 75.4887 143.755 75.9623C143.785 76.0112 143.806 76.0648 143.817 76.1208C143.858 76.4003 143.709 76.5427 143.568 76.7617C143.013 77.6253 143.466 83.8427 143.271 85.4558C143.154 86.4208 142.854 87.3057 142.058 87.92C140.591 89.0488 138.159 89.1094 136.401 88.8637C135.194 88.6856 133.898 88.2565 133.188 87.19C132.159 85.641 132.558 80.4847 132.567 78.4229C132.567 77.9778 132.682 77.1766 132.39 76.8205C132.271 76.6967 132.161 76.5639 132.062 76.4235C131.796 75.9125 132.01 74.4845 131.977 73.8418Z" fill="#101112"/>
<path d="M114.997 29.1677C114.98 28.9185 114.18 24.5563 114.113 24.396C113.878 23.8227 113.183 23.52 112.658 23.2619C113.636 22.742 114.264 22.2417 114.603 21.1253C114.925 20.0748 114.87 18.6629 114.354 17.6836C114.175 17.342 113.928 17.0415 113.628 16.8009C113.328 16.5603 112.981 16.385 112.611 16.286C111.32 15.9067 109.846 16.0723 108.518 16.156L103.135 16.5673C103.111 17.235 103.054 17.9507 103.167 18.6113C103.296 19.368 103.558 20.0997 103.639 20.8654C103.773 22.1651 103.846 26.7516 103.588 27.9979C103.529 28.2793 103.396 28.5394 103.202 28.7511C103.183 28.7742 103.169 28.7974 103.151 28.8205L103.118 28.8615C103.118 29.7339 103.118 30.6063 103.118 31.4788C104.937 31.2153 106.883 31.3007 108.667 30.9624C108.95 30.5102 108.941 29.0324 108.821 28.5018C108.764 28.2401 108.52 28.1831 108.387 27.9962C108.034 27.4994 108.156 25.7082 108.333 25.1332C108.462 25.005 108.509 24.9195 108.702 24.9284C108.927 24.9618 109.136 25.0659 109.3 25.2257C109.609 25.4697 109.667 25.6175 109.72 26.0181C109.789 26.5664 110.084 30.6473 109.975 30.8663C111.552 30.8075 113.284 30.893 114.836 30.6633C115.04 30.2111 115.033 29.6538 114.997 29.1677ZM110.238 20.6321C110.192 21.12 110.062 21.4618 109.696 21.7681C109.363 22.1704 108.548 22.1544 108.06 22.206C108.086 22.1669 108.11 22.1259 108.129 22.0832C108.412 21.5134 108.306 19.708 108.112 19.1134C108.402 19.048 108.698 19.0181 108.996 19.0243C109.161 19.0279 109.323 19.069 109.47 19.1445C109.617 19.2201 109.746 19.3281 109.846 19.4606C109.99 19.6169 110.099 19.8021 110.167 20.004C110.234 20.2059 110.259 20.42 110.238 20.6321Z" fill="#101112"/>
<path d="M134.814 18.362C134.36 17.4272 133.665 16.9572 132.712 16.6349C131.528 16.2325 124.975 15.6005 123.811 15.9334C124.121 16.7168 123.741 17.6676 123.976 18.4172C124.071 18.7234 124.419 18.9139 124.483 19.2843C124.635 20.1745 124.66 26.9866 124.352 27.6632C124.244 27.8488 124.097 28.0086 123.921 28.1315C123.935 28.7511 124.117 30.2022 123.78 30.6883C125.592 30.7559 132.825 31.4218 133.921 30.4977C133.978 30.4487 134.023 30.388 134.054 30.3197C134.605 30.0491 134.876 29.6075 135.079 29.0306C135.79 27.0044 135.749 20.2849 134.814 18.362ZM130.879 26.3421C130.867 26.8122 130.867 27.2573 130.508 27.6009C130.416 27.7576 130.411 27.8021 130.227 27.8537C129.892 27.9322 129.541 27.9017 129.224 27.7665C128.694 25.9255 129.578 21.1075 129.035 19.2202C129.224 19.1923 129.415 19.1769 129.606 19.1739C129.767 19.164 129.928 19.1887 130.078 19.2464C130.228 19.3042 130.364 19.3936 130.478 19.5086C130.713 19.8133 130.856 20.1799 130.89 20.5645C131.038 21.7218 130.872 23.0571 130.847 24.234C130.84 24.9355 130.897 25.6477 130.879 26.3421Z" fill="#101112"/>
<path d="M223.4 75.7006C223.046 76.0068 220.078 76.3166 219.468 76.4128L212.289 77.6342C210.894 77.8674 209.478 78.1683 208.071 78.284C206.289 78.4336 204.46 78.3535 202.674 78.3517H193.388L164.075 78.3499C164.121 78.4248 164.16 78.5041 164.191 78.5867C164.402 79.2135 164.324 93.5178 164.243 95.2413C164.238 95.4449 164.185 95.6445 164.089 95.8235H74.4424V78.3499H42.6221H32.8993C31.1775 78.3499 29.3637 78.471 27.656 78.2894C25.8883 78.1113 24.0993 77.5772 22.3686 77.1855C20.1111 76.6709 17.8236 76.2116 15.5927 75.6009C18.6509 75.4317 21.7958 75.8128 24.8347 75.5101C26.4999 76.37 27.9318 77.3582 29.9011 76.7172C30.6436 76.4769 31.1863 76.0317 31.7662 75.5261C33.0443 75.64 34.3878 75.5617 35.673 75.5617H43.1348H49.0127C50.1653 75.5617 51.3886 75.6454 52.5288 75.4744C54.3267 75.6845 56.2094 75.535 58.009 75.5243C59.2464 75.5154 60.5793 75.6881 61.7903 75.4388C62.5823 75.7522 75.1353 75.5457 77.1082 75.551L77.087 93.1778H161.402C161.487 92.9919 161.535 92.7911 161.543 92.5866C161.619 90.8987 161.679 76.2062 161.476 75.6934C161.456 75.6456 161.43 75.6002 161.4 75.5581C163.382 75.5581 176.044 75.77 176.852 75.4406L176.974 75.4744C177.598 75.6258 185.599 75.681 186.053 75.3961C186.361 75.592 186.761 75.5581 187.105 75.5742C188.801 75.6169 206.141 75.6917 206.59 75.5314C206.622 75.5214 206.651 75.5023 206.673 75.4762C208.223 76.3807 209.169 77.3475 211.186 76.8134C212.143 76.5605 212.98 76.0157 213.797 75.4762C214.632 75.7184 221.842 75.6436 223.108 75.5439L223.205 75.4032C223.357 75.5118 223.368 75.5012 223.4 75.7006Z" fill="#1C1B1B"/>
<path d="M61.7885 75.0738C61.5375 74.7907 57.3195 73.4714 56.2571 72.809C56.0082 71.9893 55.9388 71.1248 56.0538 70.2754C56.2801 68.5288 57.0137 66.759 57.5158 65.0764C57.857 63.9351 58.0779 62.744 58.3183 61.576C58.4951 60.7356 58.7108 59.8756 58.633 59.0103C58.5482 58.0524 58.1027 57.1426 57.2612 56.6512C55.6932 55.7467 53.0822 56.3663 51.4452 56.8292C50.3985 57.1252 49.3697 57.4819 48.3639 57.8975C47.7364 58.161 47.1035 58.5652 46.4441 58.7201C46.1369 58.8107 45.8078 58.7899 45.5142 58.6614C45.0705 58.4281 44.8884 57.7889 44.7594 57.3349C44.3899 56.0316 44.7877 55.0203 44.7099 53.7508C44.5596 51.2831 44.1212 48.8705 44.0753 46.3885C43.6934 46.2105 43.2957 46.0662 43.0005 45.7618C43.0005 45.671 42.9775 45.6318 43.0429 45.5642C43.2957 45.3042 43.5944 45.2561 43.9462 45.2579C44.5278 45.2579 45.0917 45.4093 45.6698 45.436C46.8012 45.5054 47.9432 44.9178 48.7422 44.1433C50.0946 42.8276 50.8972 40.7853 52.0621 39.2684C53.5595 38.6808 55.0214 37.3544 55.976 36.0635C56.2394 35.7074 56.5877 35.0433 56.9165 34.7851C57.1056 34.6356 57.3567 34.7228 57.5547 34.8101C57.8923 34.9578 58.161 35.1341 58.5464 35.0843C58.7267 35.0106 58.8889 34.8984 59.022 34.7555C59.155 34.6126 59.2558 34.4423 59.3171 34.2563C59.4207 33.9756 59.4672 33.6769 59.4538 33.3777C59.4404 33.0786 59.3675 32.7852 59.2394 32.515C58.7724 31.515 57.9469 30.7301 56.9289 30.3179C56.6358 30.1927 56.3208 30.1282 56.0025 30.1282C55.6843 30.1282 55.3692 30.1927 55.0762 30.3179C54.3567 30.6509 52.3945 33.0634 52.1099 33.8522C51.9817 34.2439 51.8934 34.6478 51.8465 35.0575C50.7858 36.149 48.1447 39.2524 46.7199 39.4785C46.5095 39.3984 46.4476 39.4037 46.3522 39.1847C46.0464 38.485 46.8136 34.4914 46.8631 33.4088C46.711 33.1311 46.43 32.7429 46.4618 32.4224C46.8631 31.7209 47.876 32.1037 47.5472 30.82C47.3934 30.2164 46.8896 29.7393 46.3699 29.4384C45.8165 29.1179 45.0705 28.9042 44.4359 29.0823C44.274 29.1275 44.123 29.2054 43.992 29.3113C43.861 29.4172 43.7528 29.5489 43.674 29.6983C42.8608 31.1227 43.6121 33.3964 43.7677 34.9365C43.8051 35.5195 43.7992 36.1045 43.75 36.6867C43.4671 36.2505 43.1967 35.7964 42.905 35.3745L42.8573 35.3656C41.139 35.0202 40.0288 32.9851 37.8739 34.3792C37.136 34.8882 36.6277 35.6702 36.4596 36.5549C36.3606 37.0125 36.4596 37.5182 36.5215 37.9793C35.284 39.555 34.5009 41.332 33.1892 42.881C33.5125 43.4323 33.8746 43.9595 34.2729 44.4585C34.1332 45.1707 33.9529 45.9203 33.9335 46.6485C33.8698 49.1411 35.1126 52.5365 35.878 54.9028C36.1432 55.72 36.2475 56.6637 36.6329 57.4293C36.3002 57.7769 36.004 58.1582 35.749 58.567C34.8916 60.157 34.6989 62.5392 33.9494 64.2645C33.5198 65.2509 28.9589 71.8707 28.2041 72.4405C27.1664 72.5188 26.4239 71.2689 25.4498 71.0161C23.8942 70.6066 22.1405 71.0339 20.5301 70.7366C20.2331 70.3538 19.9061 69.8 19.3792 69.752C19.1894 69.743 19.0005 69.7841 18.8312 69.8713C18.3256 70.1348 17.866 70.53 17.3728 70.822C16.6462 71.2529 15.7818 71.4666 15.1701 72.0684C14.5691 72.6766 14.2192 73.4915 14.1908 74.3492C14.184 74.6476 14.274 74.9401 14.4471 75.1824C14.5451 75.2717 14.6617 75.3377 14.7884 75.3756C14.915 75.4135 15.0485 75.4223 15.179 75.4014C15.8419 75.3159 16.4677 74.8317 16.9857 74.4346C17.5036 74.0376 18.0057 73.58 18.6633 73.3663C20.6079 72.7343 23.1234 74.6946 24.8311 75.4904C26.4964 76.3504 27.9283 77.3386 29.8976 76.6976C30.6401 76.4572 31.1828 76.0121 31.7626 75.5065C33.4562 73.904 35.3459 72.4654 36.9546 70.7757C37.7802 69.9104 38.2486 68.7905 39.129 67.9644C39.6063 67.9252 40.0977 67.9305 40.575 67.9145C40.885 67.4397 41.1908 66.9596 41.4925 66.4741C42.7105 67.1471 42.8873 66.6219 44.077 66.3815C45.2668 66.1412 46.4742 66.1483 47.6126 65.6533C49.8736 64.6723 51.0863 62.3843 53.593 61.8644C52.6844 64.6331 53.3173 67.4747 53.0097 70.3235C52.8594 71.7087 52.0851 73.0067 52.0551 74.4079C52.0445 74.894 52.2053 75.1094 52.5306 75.453C54.3284 75.6631 56.2111 75.5136 58.0107 75.5029C59.2482 75.494 60.5811 75.6667 61.7921 75.4174C61.8062 75.3462 61.8539 75.145 61.7885 75.0738ZM37.2304 41.64C37.1119 41.9195 36.7266 41.9711 36.4685 42.0602C36.4225 41.6329 36.1556 41.38 36.1025 41.0435C36.0424 40.6554 36.5851 40.0251 36.8097 39.6939C36.9311 39.7555 37.0255 39.8601 37.0748 39.9877C37.3241 40.5094 37.4673 41.0791 37.2304 41.64Z" fill="#101112"/>
<path d="M224.105 72.9212C223.894 72.5375 223.605 72.2022 223.258 71.9366C223.062 71.7799 219.58 69.7876 219.516 69.7716C218.768 69.5828 218.568 70.4179 218.038 70.7437L217.98 70.7775C216.449 71.1959 214.773 70.6351 213.239 71.0375C212.222 71.3081 211.545 72.4886 210.452 72.4832C209.793 72.0915 205.112 65.2135 204.689 64.261C203.943 62.5749 203.737 60.0252 202.865 58.5207C202.602 58.1359 202.297 57.7817 201.957 57.4649C202.409 56.8221 202.508 55.8482 202.733 55.0969C203.44 52.7288 204.198 50.489 204.612 48.0337C204.771 47.0972 204.824 45.249 204.278 44.4727C204.329 44.4353 204.354 44.4193 204.4 44.3802C204.718 44.1024 205.338 43.3582 205.374 42.9202C205.197 42.4181 204.615 41.9053 204.313 41.4424C203.712 40.5343 203.261 39.5301 202.628 38.6417C202.461 38.3991 202.256 38.1856 202.02 38.0096C202.259 37.6535 202.307 37.0464 202.232 36.6351C202.084 35.8303 201.495 34.8279 200.818 34.3792C198.856 33.0919 197.424 35.0914 195.672 35.4261L195.621 35.4368C195.476 35.9468 195.164 36.3928 194.737 36.7027C195.043 36.0742 194.815 35.2783 194.889 34.6071C195.032 33.3305 195.488 32.1251 195.315 30.8129C195.241 30.2449 195.046 29.62 194.572 29.2621C194.406 29.1457 194.218 29.065 194.02 29.0252C193.822 28.9854 193.617 28.9872 193.42 29.0306C192.626 29.1789 191.918 29.6242 191.436 30.277C191.198 30.6064 190.971 31.0675 191.062 31.4895C191.152 31.9115 191.721 32.0895 192.064 32.2943C192.354 32.8088 191.799 33.2201 191.808 33.8112C191.832 35.5045 192.515 37.3045 192.306 38.9978C192.278 39.2363 192.242 39.4749 192.043 39.6316C190.644 39.4785 187.977 35.9763 186.685 35.0522L186.651 35.0291C186.747 34.7287 186.747 34.4054 186.651 34.105C186.333 32.9335 184.666 31.0372 183.616 30.4639C183.333 30.3099 183.022 30.2164 182.702 30.1891C182.382 30.1618 182.06 30.2015 181.756 30.3055C180.819 30.6028 180.034 31.3951 179.589 32.264C179.278 32.8747 179.127 33.6314 179.348 34.2973C179.394 34.463 179.473 34.6177 179.58 34.7523C179.686 34.8869 179.819 34.9985 179.969 35.0807C180.446 35.2926 180.978 34.8938 181.42 34.7139C181.513 34.7142 181.604 34.7346 181.688 34.7736C181.773 34.8126 181.847 34.8694 181.908 34.9401C182.295 35.3513 182.507 36.0083 182.856 36.473C183.359 37.1425 185.33 38.7182 186.098 39.0761C186.236 39.1426 186.371 39.2163 186.502 39.2969C187.825 40.3438 188.596 42.8454 189.806 44.1042C191.489 45.8633 192.997 45.2081 195.046 45.3042C195.15 45.2985 195.254 45.3183 195.348 45.3621C195.443 45.4058 195.526 45.4721 195.589 45.5553L195.522 45.8045C195.258 46.1482 194.912 46.2586 194.523 46.4081C194.534 46.4669 194.541 46.5256 194.548 46.5862C194.774 48.6942 194.123 50.9448 194.017 53.0635C193.955 54.2707 194.173 55.5046 194.03 56.6957C193.973 57.1836 193.839 58.0489 193.499 58.4085C193.16 58.7682 192.615 58.7344 192.182 58.6489C191.422 58.4976 190.682 58.0916 189.96 57.805C187.864 56.9681 185.187 55.9924 182.914 56.2025C182.474 56.2298 182.044 56.3478 181.651 56.5493C181.258 56.7509 180.911 57.0316 180.63 57.3741C180.256 57.8394 180.034 58.4095 179.993 59.0068C179.928 59.8472 180.151 60.6876 180.321 61.4995C180.577 62.7262 180.817 63.9654 181.176 65.1672C181.706 66.9175 182.491 68.7763 182.672 70.5995C182.742 71.301 182.728 72.2162 182.267 72.7823C181.316 73.9379 177.671 74.2067 176.932 74.9919C176.801 75.1326 176.847 75.243 176.854 75.4281L176.976 75.462C177.6 75.6133 185.601 75.6685 186.055 75.3836C186.331 75.2056 186.52 75.0845 186.586 74.7391C186.861 73.4928 185.682 71.3562 185.589 69.9763C185.465 68.1068 185.965 63.3885 185.058 62.0603C185.018 62.0057 184.975 61.9534 184.929 61.9036L184.894 61.8591C187.51 62.2864 188.714 64.6598 191.03 65.664C192.267 66.1981 193.681 66.248 194.995 66.4688C195.819 66.6059 196.068 67.2023 196.892 66.5916C196.929 66.5653 196.962 66.5328 196.989 66.4955C197.325 66.7572 197.889 67.359 197.921 67.8148C197.922 67.855 197.917 67.895 197.908 67.9341L199.344 67.9662C200.341 68.4896 200.758 69.6808 201.44 70.5229C202.163 71.4132 206.5 74.9528 206.643 75.373C206.652 75.3997 206.659 75.4281 206.668 75.4566C208.218 76.3611 209.164 77.3279 211.181 76.7938C212.137 76.5409 212.975 75.9961 213.792 75.4566C215.192 74.9225 216.444 73.9806 217.837 73.4981C220.188 72.7022 221.326 74.4418 223.2 75.3783C223.352 75.494 223.363 75.4833 223.394 75.6828C223.633 75.6703 223.875 75.6471 224.114 75.6258C224.275 75.5118 224.353 75.4869 224.416 75.291C224.639 74.6251 224.432 73.5248 224.105 72.9212ZM201.534 41.8323C201.064 41.2162 201.522 40.561 201.534 39.8595V39.7972C201.645 39.7978 201.756 39.8073 201.866 39.8257C202.177 40.1648 202.444 40.5416 202.662 40.9474C202.626 41.2358 202.308 41.3266 202.132 41.7059L202.117 41.9267C201.918 41.9635 201.712 41.9302 201.534 41.8323Z" fill="#101112"/>
<path d="M112.786 33.3269C131.507 32.7518 157.194 34.4379 174.975 40.4684C176.711 41.056 180.091 42.0709 181.461 43.0679C181.488 43.1171 181.51 43.169 181.526 43.2228C181.703 43.8086 181.655 53.7152 181.574 55.0595C181.562 55.2118 181.516 55.3593 181.438 55.4903C181.045 56.4019 179.693 56.6868 179.327 57.748C178.772 59.3504 179.994 61.706 179.49 63.0129L179.456 63.0502C178.776 63.6699 175.694 64.5369 174.748 64.8503C160.38 69.6256 140.906 71.7051 125.781 71.8903C106.825 72.6719 76.8024 70.4891 59.2022 63.2247C59.2889 61.6223 59.8475 59.865 59.5965 58.2786C59.3773 56.8916 58.3802 56.215 57.3425 55.4476V42.8062C70.3711 36.8986 88.5193 34.6623 102.799 33.7507C106.13 33.5459 109.45 33.4818 112.786 33.3269Z" fill="#101112"/>
<path d="M171.6 43.6145C172.39 43.4187 176.601 44.8609 177.492 45.217C177.536 45.308 177.571 45.4035 177.595 45.5019C177.932 47.017 177.209 48.2723 177.172 49.7269C177.105 52.2962 177.086 54.9366 177.186 57.5023C177.25 59.1136 177.992 60.0893 177.52 61.836C177.199 62.0033 176.734 62.0443 176.377 62.1191C175.602 62.5677 172.546 63.0752 171.542 63.255C172.053 62.4805 171.605 60.8086 171.754 59.8721C171.826 59.4074 172.212 59.1474 172.244 58.6151C172.36 56.7456 172.265 54.8102 172.265 52.9354C172.265 51.3009 172.466 49.353 172.157 47.7595C172.086 47.4323 171.921 47.1332 171.683 46.8995C171.791 46.0378 171.924 44.4104 171.6 43.6145Z" fill="white"/>
<path d="M159.478 40.5396C160.93 40.6839 166.786 41.9961 168.045 42.5427C168.081 42.6025 168.113 42.665 168.14 42.7296C168.671 43.9528 167.787 46.6022 167.955 48.0568C168.071 49.1055 168.335 50.1525 168.517 51.1905C168.909 53.4161 169.289 55.6417 169.754 57.8584C169.958 58.8287 170.32 59.7706 170.462 60.7499C170.559 61.4371 170.615 62.5713 170.446 63.2425C170.42 63.3416 170.387 63.4386 170.347 63.5328C169.152 64.0099 165.957 64.4782 164.543 64.7025C164.584 64.6374 164.621 64.5689 164.651 64.4978C164.769 64.2147 164.918 59.9486 164.828 59.7314C164.879 59.6431 164.921 59.5494 164.953 59.4519C165.093 59.0246 164.985 58.6756 164.794 58.2892C163.972 58.3088 163.145 58.3961 162.319 58.4548C162.611 58.9605 162.305 59.6014 162.459 60.1409C162.533 60.3991 162.784 60.5593 162.887 60.7979C162.897 60.8211 162.908 60.846 162.917 60.8692C162.994 61.8199 163.184 64.2182 162.811 65.0444C161.166 65.5589 158.736 65.7566 156.977 66.0343C157.44 65.0159 156.977 62.7956 157.138 61.5831C157.21 61.0365 157.619 60.6074 157.71 60.0448C158.126 57.5325 158.449 54.9971 158.845 52.4795C159.148 50.5442 159.552 48.5749 159.729 46.6253C159.804 45.7351 159.563 44.7879 159.489 43.8994C159.415 42.7808 159.411 41.6587 159.478 40.5396Z" fill="white"/>
<path d="M163.664 46.1606C164.041 46.6129 164.548 53.0368 164.591 53.9947C164.348 54.1318 163.968 54.0855 163.693 54.0873C163.475 54.1013 163.257 54.0803 163.046 54.025C162.752 53.4232 163.666 47.3446 163.664 46.1606Z" fill="#101112"/>
<path d="M113.107 36.5086C114.859 36.4428 116.617 36.457 118.37 36.4499C118.642 36.9377 118.566 37.7817 118.57 38.3443C118.57 39.4001 118.637 40.5664 118.469 41.6079C118.307 42.6086 117.903 43.5665 117.647 44.544L115.814 51.7834C115.46 53.2078 114.997 54.6873 114.806 56.1473C114.63 57.4898 114.605 60.7766 114.819 62.0087C114.896 62.4609 115.08 62.7725 115.236 63.1856C115.347 64.2645 115.524 68.073 115.119 68.9045C112.938 68.7941 110.758 68.835 108.578 68.6783L108.605 68.6285C109.102 67.6653 108.656 65.0515 108.741 63.8568C108.813 62.7992 109.365 62.5588 109.561 61.7202C109.662 61.2965 109.625 60.5291 109.395 60.1588C109.798 59.4946 109.618 57.6376 109.572 56.8079C109.473 54.7319 108.197 50.9839 107.627 48.8741C107.125 47.0259 106.743 44.9303 105.997 43.1765C105.881 42.9098 105.704 42.6739 105.481 42.4875C105.545 41.4192 105.768 37.6802 105.342 36.9093C107.234 36.7787 109.13 36.679 111.029 36.6101C111.05 36.649 111.069 36.6895 111.085 36.7312C111.354 37.4434 111.237 42.9237 111.393 44.3641C111.485 45.217 112.026 47.3251 111.771 48.039L111.744 48.1085C111.723 48.1601 111.702 48.21 111.679 48.2616C113.044 46.5345 112.828 41.2251 112.828 38.9301C112.828 38.2179 112.706 37.3188 112.874 36.6279L113.107 36.5086Z" fill="white"/>
<path d="M75.7027 41.2501L75.7893 41.2625C75.8583 41.3333 75.8992 41.427 75.9042 41.526C76.0987 44.0187 75.6815 47.0028 75.6744 49.5863C75.6744 52.6505 75.6126 55.7253 75.6744 58.7878C75.6974 59.7848 75.8265 60.7766 75.876 61.7719C75.9308 62.8651 75.899 63.9743 75.8919 65.0675C74.1359 64.7506 72.384 64.4165 70.6362 64.0651C70.6256 59.986 71.1984 55.939 70.8696 51.851C70.4771 54.6695 69.8089 57.4898 69.2485 60.2816C68.7182 60.2406 68.1879 60.157 67.6575 60.0751C67.1496 57.4862 66.6128 54.9028 66.0471 52.3246C65.9693 53.4499 66.0082 54.6036 66.0064 55.7325C65.987 58.2002 66.2946 60.6252 66.2574 63.0947C64.4119 62.69 62.5745 62.252 60.7455 61.7808C60.7455 60.9849 60.5298 59.6228 60.8215 58.9124C60.9664 58.5563 61.3076 58.4958 61.3518 58.0222C61.4526 56.8684 61.3677 55.6488 61.366 54.4844C61.366 52.9069 61.4155 51.3222 61.4013 49.7465C61.4013 48.9827 60.9594 48.639 60.8232 47.9838C60.6465 47.1434 60.7331 46.1677 60.7419 45.3131C62.6723 44.6152 64.7071 44.0988 66.6817 43.5326C67.1997 46.2229 67.6416 48.972 68.2922 51.6427C68.872 48.6889 69.2839 45.6745 69.7188 42.694C71.7093 42.2002 73.7039 41.7189 75.7027 41.2501Z" fill="white"/>
<path d="M126.518 36.6155C129.493 36.4784 132.656 36.8576 135.625 37.0944C137.377 37.2333 139.292 37.2725 141.003 37.6393C141.05 37.7032 141.086 37.7741 141.111 37.8494C141.288 38.4512 141.242 48.299 141.144 49.5578C141.13 49.731 141.076 49.8986 140.987 50.0474L137.452 49.9976C137.726 49.5827 137.708 45.3559 137.575 44.6793C137.503 44.3089 137.245 43.5184 136.925 43.2976L136.757 43.392C136.606 43.7736 136.531 44.1813 136.536 44.592C136.409 47.8414 136.536 51.1495 136.536 54.4078C136.536 56.2435 136.373 59.0246 136.536 60.7606C136.589 61.2947 136.78 62.1565 137.147 62.541C137.208 62.5973 137.259 62.6635 137.298 62.7369C137.308 62.7583 137.317 62.7796 137.328 62.8028C137.384 63.4242 137.542 64.3749 137.202 64.9251C137.262 65.0163 137.309 65.1159 137.34 65.2207C137.517 65.8492 137.54 67.7222 137.208 68.2582C135.008 68.5911 132.64 68.5697 130.414 68.689C130.868 68.0124 130.495 64.2895 130.631 63.2141C130.711 62.5962 131.261 62.1013 131.365 61.4834C131.588 60.1516 131.406 56.8168 131.404 55.3372C131.404 51.5519 131.563 47.7025 131.404 43.9261C131.392 43.643 131.386 43.3243 131.217 43.0946C131.105 43.1059 130.994 43.128 130.886 43.1605C129.247 43.6947 130.607 48.4824 129.944 49.759C129.933 49.7786 129.923 49.7946 129.912 49.8124H126.376C126.464 49.68 126.517 49.5275 126.53 49.369C126.707 47.3856 126.551 45.2739 126.551 43.2709C126.567 41.0969 126.733 38.7716 126.518 36.6155Z" fill="white"/>
<path d="M90.5877 38.5135C90.6844 38.5047 90.7818 38.5083 90.8776 38.5242C91.1233 39.0725 91.0261 42.6193 90.9182 43.3314C90.8104 44.0436 90.4639 44.7309 90.4462 45.468C90.372 48.794 90.4462 52.1377 90.4462 55.4654C90.4462 58.1789 90.7079 61.2698 89.8982 63.8764C89.5447 65.0017 88.9153 65.9916 87.8388 66.5382C86.3874 67.2771 84.457 67.0545 82.9614 66.5667C78.1884 65.0034 78.4536 60.2763 78.4606 56.0832L78.4765 49.223C78.4765 47.8717 78.6356 46.2781 78.0063 45.0478L77.9656 44.9677C77.9179 43.5683 77.948 42.1581 77.9462 40.7569C79.9721 40.326 82.0045 39.9295 84.0433 39.5675C84.0433 40.7782 84.2112 42.135 84.0663 43.3297C83.9832 44.0294 83.7357 44.6953 83.6261 45.3897C83.2726 47.6171 83.5077 50.4729 83.5094 52.7537C83.5094 55.0879 83.3327 57.5842 83.5925 59.9024C83.6188 60.2473 83.7353 60.579 83.9302 60.8638C84.0014 60.9557 84.0923 61.0303 84.196 61.0821C84.2997 61.1339 84.4137 61.1615 84.5294 61.1629C84.649 61.1278 84.7578 61.0629 84.8459 60.9742C85.1588 60.6181 85.2666 59.9754 85.3143 59.516C85.5265 57.4186 85.3585 55.1467 85.3515 53.0315C85.3515 50.7418 85.4646 48.4023 85.3515 46.1161C85.302 45.176 84.9396 44.3356 84.8211 43.4276C84.6673 42.1581 84.8035 40.7302 84.8088 39.4447C86.6632 38.9675 88.6891 38.7859 90.5877 38.5135Z" fill="white"/>
<path d="M102.605 37.1247C102.843 37.0986 103.084 37.0956 103.323 37.1158C103.535 38.2232 103.445 40.6768 103.339 41.8109C103.254 42.7225 103.075 43.6234 103.111 44.5404C103.211 47.0669 103.712 49.6664 104.032 52.1769C104.449 55.4636 104.709 58.859 105.414 62.0941C105.665 63.2425 106.137 67.6492 105.591 68.5039C103.669 68.495 101.737 68.308 99.8207 68.1478C99.8207 66.686 99.7765 65.21 99.8437 63.75C99.9073 62.3256 100.125 61.0134 99.9993 59.5854C99.1743 59.5463 98.3464 59.5142 97.5155 59.4893L97.3988 61.081C97.4332 61.6261 97.6276 62.1485 97.9575 62.582V67.9679C95.9846 67.9216 93.9852 67.6261 92.023 67.416C92.023 65.8438 91.8869 64.1684 92.0407 62.6087C92.0884 62.1208 92.3377 61.9072 92.4915 61.4781C92.5763 61.1661 92.6302 60.8464 92.6523 60.5237L94.0082 50.4783C94.2645 48.5696 94.6004 46.6325 94.7507 44.7131C94.802 44.0543 94.4926 43.3528 94.4519 42.6833C94.3565 41.1254 94.4183 39.5283 94.4183 37.9669C97.146 37.7016 99.8684 37.3722 102.605 37.1247Z" fill="white"/>
<path d="M98.7953 43.5309C99.0746 44.1879 99.7093 52.6843 99.6633 53.9378C99.4865 54.0927 99.3203 54.0535 99.087 54.0642C98.7706 54.0642 98.2544 54.13 97.9945 53.9431C97.9043 52.8606 98.12 51.6285 98.2084 50.5442L98.7953 43.5309Z" fill="#101112"/>
<path d="M142.142 37.8885C143.528 37.6499 147.091 38.323 148.592 38.6007C148.633 38.6627 148.668 38.729 148.695 38.7983C148.826 39.1135 148.765 39.6441 148.767 39.9859C148.767 40.9723 148.827 42.0103 148.702 42.9896C148.585 43.9101 148.327 44.8057 148.274 45.7369C148.209 46.8425 148.479 48.8812 148.085 49.8124C148.778 49.8124 149.474 49.8765 150.166 49.9192C150.226 49.8265 150.273 49.725 150.303 49.6183C150.519 48.8509 150.415 45.4716 150.249 44.633C150.174 44.2537 149.839 43.951 149.805 43.5771C149.699 42.3789 150.171 39.7099 149.628 38.7699C151.677 38.9479 153.788 39.4001 155.805 39.8061C155.982 40.2103 155.953 40.6963 155.967 41.129C156.028 42.0646 155.996 43.004 155.872 43.9332C155.736 44.7451 155.471 45.5695 155.439 46.3939C155.361 48.3951 155.423 50.4249 155.425 52.4297C155.425 54.8102 155.349 57.2174 155.441 59.5943C155.471 60.3902 155.72 61.1629 155.849 61.9463C156.036 63.0645 156.194 65.1512 155.808 66.2302C155.064 66.4296 154.194 66.4652 153.427 66.5685C152.167 66.7465 150.905 66.9531 149.635 67.0599C150.118 66.2711 149.747 63.3209 149.853 62.2205C149.899 61.7576 150.206 61.3178 150.305 60.8638C150.482 60.1303 150.482 55.5224 150.167 55.0132L148.064 55.0256C148.631 55.9746 148.046 59.694 148.269 61.0347C148.368 61.4414 148.518 61.8335 148.718 62.201C148.833 63.2283 149.02 66.2961 148.612 67.2005C146.453 67.4724 144.289 67.6973 142.12 67.8753C142.827 66.7056 141.795 63.3511 142.52 62.2882C142.734 61.9748 143.038 61.471 143.082 61.0935C143.328 59.0353 143.144 56.1082 143.146 53.984C143.146 51.1175 143.375 47.188 143.011 44.4086C142.925 43.7481 142.767 43.4935 142.244 43.0911C142.357 42.1795 142.508 38.6452 142.142 37.8885Z" fill="white"/>
</svg>
