<svg width="146" height="42" viewBox="0 0 146 42" fill="none" xmlns="http://www.w3.org/2000/svg">
<path d="M42.4482 28.4498V14.6279H47.0539V24.62H57.0146V28.4543L42.4482 28.4498Z" fill="#101112"/>
<path d="M75.3298 14.6279V22.4129C75.3298 24.0395 75.0087 25.3336 74.3665 26.2954C73.7242 27.2571 72.8048 27.9383 71.6081 28.3389C70.4121 28.7388 68.9171 28.9388 67.123 28.9388C65.329 28.9388 63.8339 28.7388 62.6379 28.3389C61.4419 27.9389 60.5224 27.2611 59.8796 26.3054C59.2367 25.3497 58.9153 24.0522 58.9153 22.4129V14.6279H63.5209V22.2774C63.5209 23.2707 63.8305 23.987 64.4497 24.4264C65.0689 24.8658 65.9613 25.0855 67.1268 25.0855C68.2817 25.0855 69.1715 24.8658 69.7963 24.4264C70.4211 23.987 70.7326 23.2707 70.7307 22.2774V14.6279H75.3298Z" fill="#101112"/>
<path d="M98.019 28.4498H93.4133V19.0386H93.3059L89.6617 28.4498H86.1886L82.493 18.9222H82.3678V28.4498H78.0126V14.6279H85.0813L87.8845 22.3929H88.0088L90.7578 14.6279H98.0236L98.019 28.4498Z" fill="#101112"/>
<path d="M100.695 28.4498V14.6279H105.301V28.4543L100.695 28.4498Z" fill="#101112"/>
<path d="M123.769 16.0061C125.322 17.2181 126.098 19.0771 126.098 21.583C126.098 24.0889 125.322 25.9478 123.769 27.1599C122.216 28.3719 119.911 28.978 116.854 28.978C113.807 28.978 111.507 28.3719 109.955 27.1599C108.402 25.9478 107.625 24.0889 107.622 21.583C107.622 19.0789 108.399 17.2199 109.952 16.0061C111.505 14.7922 113.805 14.1862 116.851 14.188C119.91 14.1862 122.216 14.7922 123.769 16.0061ZM119.993 24.2846C120.694 23.658 121.045 22.7574 121.046 21.583C121.046 20.4085 120.695 19.508 119.993 18.8813C119.291 18.2553 118.244 17.9423 116.851 17.9423C115.458 17.9423 114.414 18.2553 113.718 18.8813C113.022 19.508 112.674 20.4085 112.674 21.583C112.674 22.7574 113.022 23.658 113.718 24.2846C114.415 24.9106 115.459 25.2237 116.851 25.2237C118.244 25.2237 119.291 24.9106 119.993 24.2846Z" fill="#101112"/>
<path d="M138.317 17.6528C137.811 17.4104 137.082 17.2892 136.13 17.2892C135.154 17.2892 134.458 17.3892 134.041 17.5892C133.625 17.7892 133.416 18.0828 133.416 18.47C133.407 18.6058 133.437 18.7413 133.503 18.8611C133.569 18.981 133.669 19.0805 133.79 19.1482C134.039 19.29 134.467 19.3933 135.075 19.4582L140.269 19.9227C141.841 20.0645 143.022 20.4711 143.813 21.1426C144.604 21.8141 145 22.8276 145 24.1833C145 25.4614 144.682 26.4489 144.045 27.1459C143.408 27.8428 142.474 28.3237 141.242 28.5885C140.009 28.8533 138.382 28.9857 136.36 28.9857C134.419 28.9857 132.847 28.8436 131.646 28.5594C130.445 28.2752 129.52 27.7652 128.87 27.0295C128.222 26.2944 127.874 25.2551 127.827 23.9115H133.188C133.319 24.6478 133.649 25.1548 134.179 25.4323C134.708 25.7099 135.497 25.8487 136.545 25.8487C137.615 25.8487 138.386 25.742 138.856 25.5287C139.327 25.3154 139.561 24.9821 139.561 24.5288C139.561 24.1542 139.424 23.8815 139.151 23.7106C138.877 23.5397 138.467 23.43 137.919 23.3816L132.92 22.8589C131.337 22.6916 130.147 22.2977 129.351 21.6771C128.554 21.0565 128.155 20.0687 128.155 18.7137C128.155 17.5622 128.473 16.6553 129.11 15.9929C129.746 15.3305 130.657 14.8624 131.841 14.5885C133.024 14.3176 134.509 14.1821 136.294 14.1821C138.068 14.1821 139.543 14.3209 140.721 14.5985C141.899 14.876 142.819 15.3569 143.48 16.0411C144.141 16.7253 144.489 17.6613 144.523 18.8491H139.222C139.185 18.5921 139.084 18.348 138.926 18.1391C138.768 17.9301 138.559 17.763 138.317 17.6528Z" fill="#101112"/>
<path fill-rule="evenodd" clip-rule="evenodd" d="M19.8332 32.989C19.2692 33.0593 18.6943 33.0955 18.1108 33.0955C17.5228 33.0955 16.9437 33.0587 16.3757 32.9874C16.1069 34.4669 15.3287 35.5615 14.2209 35.9337C13.2988 36.245 12.4173 35.965 12.3205 35.9343L12.3185 35.9337C10.2418 35.2383 9.65132 32.2448 9.49816 30.0514C8.41538 29.1686 7.478 28.1225 6.72601 26.9521C6.66679 27.2009 6.62017 27.4276 6.57752 27.635C6.40221 28.4876 6.29403 29.0136 5.65437 29.4023C4.70035 29.9822 3.49871 29.6913 3.43517 29.675C2.2055 29.3586 1.66636 28.305 1.53274 28.0387C0.224582 25.4734 3.15672 22.3382 3.43517 22.0464C3.86106 21.6022 4.30076 21.2388 4.72567 20.9379C4.70512 20.6424 4.69467 20.3442 4.69467 20.0437C4.69467 12.8353 10.7013 6.99175 18.1108 6.99175C25.5203 6.99175 31.5268 12.8353 31.5268 20.0437C31.5268 20.3497 31.516 20.6533 31.4947 20.954C31.9117 21.2516 32.3425 21.61 32.7603 22.0464C33.0518 22.3382 35.9849 25.4734 34.6749 28.0387C34.5422 28.3032 34.0031 29.3568 32.7734 29.675C32.7099 29.6913 31.5082 29.9822 30.5542 29.4023C29.918 29.0144 29.8099 28.4897 29.6348 27.6403C29.5925 27.4348 29.5462 27.2104 29.4877 26.9643C28.7337 28.1348 27.7943 29.1807 26.7093 30.0628C26.5552 32.2551 25.9631 35.2395 23.8901 35.9337L23.8881 35.9343C23.7913 35.965 22.9097 36.245 21.9876 35.9337C20.8803 35.5617 20.1023 34.4677 19.8332 32.989Z" fill="#101112"/>
<path d="M18.1112 26.9066C23.0462 26.9066 27.0468 23.8338 27.0468 20.0434C27.0468 16.2529 23.0462 13.1802 18.1112 13.1802C13.1762 13.1802 9.17554 16.2529 9.17554 20.0434C9.17554 23.8338 13.1762 26.9066 18.1112 26.9066Z" fill="white"/>
<path d="M14.2826 21.7829C15.3503 21.7829 16.2159 20.6563 16.2159 19.2667C16.2159 17.877 15.3503 16.7505 14.2826 16.7505C13.2149 16.7505 12.3494 17.877 12.3494 19.2667C12.3494 20.6563 13.2149 21.7829 14.2826 21.7829Z" fill="#101112"/>
<path d="M21.612 21.7829C22.6797 21.7829 23.5452 20.6563 23.5452 19.2667C23.5452 17.877 22.6797 16.7505 21.612 16.7505C20.5443 16.7505 19.6787 17.877 19.6787 19.2667C19.6787 20.6563 20.5443 21.7829 21.612 21.7829Z" fill="#101112"/>
</svg>
